<?xml version="1.0" encoding="UTF-8"?>
<svg id="Livello_2" data-name="Livello 2" xmlns="http://www.w3.org/2000/svg" viewBox="0 0 43.45 30.27">
  <g id="Home_DK" data-name="Home DK">
    <g>
      <path d="m0,.72h20.83v3.52H3.79v8.72h15.75v3.32H3.79v9.73h17.34v3.42H0V.72Z"/>
      <path d="m24.78,20.17c.09,1.63.46,2.95,1.11,3.97,1.24,1.9,3.43,2.85,6.57,2.85,1.41,0,2.69-.21,3.84-.63,2.23-.81,3.35-2.25,3.35-4.34,0-1.56-.47-2.68-1.42-3.34-.96-.65-2.46-1.22-4.51-1.7l-3.77-.88c-2.46-.57-4.2-1.21-5.23-1.9-1.77-1.2-2.65-2.99-2.65-5.37,0-2.58.87-4.7,2.61-6.35,1.74-1.65,4.2-2.48,7.38-2.48,2.93,0,5.42.73,7.47,2.18,2.05,1.45,3.07,3.78,3.07,6.97h-3.65c-.19-1.54-.59-2.72-1.2-3.54-1.14-1.5-3.07-2.25-5.79-2.25-2.2,0-3.78.48-4.74,1.45-.96.96-1.44,2.08-1.44,3.36,0,1.41.57,2.44,1.7,3.09.74.42,2.43.94,5.06,1.56l3.9.92c1.88.44,3.33,1.05,4.36,1.82,1.77,1.34,2.65,3.29,2.65,5.84,0,3.18-1.13,5.45-3.38,6.82s-4.88,2.05-7.86,2.05c-3.48,0-6.21-.91-8.18-2.74-1.97-1.81-2.94-4.27-2.9-7.37h3.65Z"/>
    </g>
  </g>
</svg>
