<?xml version="1.0" encoding="UTF-8"?>
<svg id="Livello_2" data-name="Livello 2" xmlns="http://www.w3.org/2000/svg" viewBox="0 0 455.05 344.01">
  <defs>
    <style>
      .cls-1 {
        fill: #000;
      }
    </style>
  </defs>
  <g id="Livello_1-2" data-name="Livello 1">
    <g>
      <path class="cls-1" d="m120.45,344.01c-24.09,0-43.84-5.22-59.26-15.66-15.42-10.43-27.7-23.92-36.86-40.47-9.15-16.54-15.5-35.01-19.03-55.41-3.54-20.39-5.3-40.55-5.3-60.47s1.76-40.06,5.3-60.47c3.53-20.39,9.88-38.86,19.03-55.41,9.15-16.54,21.44-30.03,36.86-40.47C76.61,5.22,96.36,0,120.45,0s43.84,5.22,59.26,15.66c15.42,10.44,27.7,23.93,36.86,40.47,9.15,16.55,15.49,35.01,19.03,55.41,3.53,20.4,5.3,40.55,5.3,60.47s-1.77,40.07-5.3,60.47c-3.54,20.4-9.88,38.87-19.03,55.41-9.15,16.55-21.44,30.04-36.86,40.47-15.42,10.43-35.17,15.66-59.26,15.66Zm0-15.9c20.55,0,37.5-4.98,50.83-14.94,13.32-9.95,23.77-22.64,31.32-38.06,7.54-15.42,12.77-32.28,15.66-50.59,2.89-18.31,4.34-35.81,4.34-52.52s-1.45-34.21-4.34-52.52c-2.89-18.31-8.12-35.17-15.66-50.59-7.55-15.42-17.99-28.1-31.32-38.06-13.33-9.95-30.28-14.94-50.83-14.94s-37.9,4.98-51.07,14.94c-13.17,9.96-23.53,22.64-31.08,38.06-7.55,15.42-12.77,32.28-15.66,50.59-2.89,18.31-4.34,35.82-4.34,52.52s1.45,34.21,4.34,52.52c2.89,18.31,8.11,35.17,15.66,50.59,7.54,15.42,17.9,28.11,31.08,38.06,13.17,9.96,30.19,14.94,51.07,14.94Z"/>
      <path class="cls-1" d="m354.25,40.92c-11.89,12.53-25.54,22.33-40.95,29.39-15.42,7.07-31.48,11.4-48.18,13.01v-15.9c19.27-2.89,36.77-9.64,52.52-20.24,15.73-10.6,28.58-24.57,38.54-41.92h16.38v332.44h-18.31V40.92Z"/>
    </g>
  </g>
</svg>
