<?xml version="1.0" encoding="UTF-8"?>
<svg id="Livello_2" data-name="Livello 2" xmlns="http://www.w3.org/2000/svg" viewBox="0 0 462.05 344.01">
  <defs>
    <style>
      .cls-1 {
        fill: #000;
      }
    </style>
  </defs>
  <g id="Livello_1-2" data-name="Livello 1">
    <g>
      <path class="cls-1" d="m120.45,344.01c-24.09,0-43.84-5.22-59.26-15.66-15.42-10.43-27.7-23.92-36.86-40.47-9.15-16.54-15.5-35.01-19.03-55.41-3.54-20.39-5.3-40.55-5.3-60.47s1.76-40.06,5.3-60.47c3.53-20.39,9.88-38.86,19.03-55.41,9.15-16.54,21.44-30.03,36.86-40.47C76.61,5.22,96.36,0,120.45,0s43.84,5.22,59.26,15.66c15.42,10.44,27.7,23.93,36.86,40.47,9.15,16.55,15.49,35.01,19.03,55.41,3.53,20.4,5.3,40.55,5.3,60.47s-1.77,40.07-5.3,60.47c-3.54,20.4-9.88,38.87-19.03,55.41-9.15,16.55-21.44,30.04-36.86,40.47-15.42,10.43-35.17,15.66-59.26,15.66Zm0-15.9c20.55,0,37.5-4.98,50.83-14.94,13.32-9.95,23.77-22.64,31.32-38.06,7.54-15.42,12.77-32.28,15.66-50.59,2.89-18.31,4.34-35.81,4.34-52.52s-1.45-34.21-4.34-52.52c-2.89-18.31-8.12-35.17-15.66-50.59-7.55-15.42-17.99-28.1-31.32-38.06-13.33-9.95-30.28-14.94-50.83-14.94s-37.9,4.98-51.07,14.94c-13.17,9.96-23.53,22.64-31.08,38.06-7.55,15.42-12.77,32.28-15.66,50.59-2.89,18.31-4.34,35.82-4.34,52.52s1.45,34.21,4.34,52.52c2.89,18.31,8.11,35.17,15.66,50.59,7.54,15.42,17.9,28.11,31.08,38.06,13.17,9.96,30.19,14.94,51.07,14.94Z"/>
      <path class="cls-1" d="m251.02,296.55c6.1-12.36,13.89-23.61,23.37-33.73,9.47-10.12,20.07-19.51,31.8-28.19,11.72-8.67,23.68-17.02,35.89-25.05,11.88-8.03,23.61-16.14,35.17-24.33,11.56-8.19,21.92-16.94,31.08-26.26,9.15-9.31,16.46-19.51,21.92-30.59,5.46-11.08,8.19-23.68,8.19-37.82,0-11.24-2.25-21.44-6.75-30.59-4.5-9.15-10.52-17.02-18.07-23.61-7.55-6.58-16.22-11.64-26.02-15.18-9.8-3.53-20.16-5.3-31.08-5.3-15.1,0-28.27,2.65-39.51,7.95-11.25,5.3-20.56,12.53-27.94,21.68-7.39,9.15-12.93,19.92-16.62,32.28-3.7,12.37-5.54,25.78-5.54,40.23h-18.31c1.93-40.47,11.64-70.26,29.15-89.37C295.26,9.56,320.56,0,353.64,0c14.13,0,27.46,1.85,39.99,5.54,12.53,3.7,23.44,9.32,32.76,16.86,9.31,7.55,16.7,17.03,22.16,28.43,5.46,11.41,8.19,24.81,8.19,40.23,0,19.6-4.58,36.86-13.73,51.79-9.15,14.94-20.72,28.51-34.69,40.71-13.97,12.21-29.07,23.61-45.29,34.21-16.22,10.6-31.48,21.12-45.77,31.56-14.3,10.44-26.5,21.37-36.62,32.76-10.12,11.41-15.82,24.01-17.1,37.82h198.5v18.31h-221.63c.96-15.42,4.49-29.31,10.6-41.68Z"/>
    </g>
  </g>
</svg>
