<?xml version="1.0" encoding="UTF-8"?>
<svg id="Livello_2" data-name="Livello 2" xmlns="http://www.w3.org/2000/svg" viewBox="0 0 462.05 344.01">
  <defs>
    <style>
      .cls-1 {
        fill: #000;
      }
    </style>
  </defs>
  <g id="Livello_1-2" data-name="Livello 1">
    <g>
      <path class="cls-1" d="m120.45,344.01c-24.09,0-43.84-5.22-59.26-15.66-15.42-10.43-27.7-23.92-36.86-40.47-9.15-16.54-15.5-35.01-19.03-55.41-3.54-20.39-5.3-40.55-5.3-60.47s1.76-40.06,5.3-60.47c3.53-20.39,9.88-38.86,19.03-55.41,9.15-16.54,21.44-30.03,36.86-40.47C76.61,5.22,96.36,0,120.45,0s43.84,5.22,59.26,15.66c15.42,10.44,27.7,23.93,36.86,40.47,9.15,16.55,15.49,35.01,19.03,55.41,3.53,20.4,5.3,40.55,5.3,60.47s-1.77,40.07-5.3,60.47c-3.54,20.4-9.88,38.87-19.03,55.41-9.15,16.55-21.44,30.04-36.86,40.47-15.42,10.43-35.17,15.66-59.26,15.66Zm0-15.9c20.55,0,37.5-4.98,50.83-14.94,13.32-9.95,23.77-22.64,31.32-38.06,7.54-15.42,12.77-32.28,15.66-50.59s4.34-35.81,4.34-52.52-1.45-34.21-4.34-52.52c-2.89-18.31-8.12-35.17-15.66-50.59-7.55-15.42-17.99-28.1-31.32-38.06-13.33-9.95-30.28-14.94-50.83-14.94s-37.9,4.98-51.07,14.94c-13.17,9.96-23.53,22.64-31.08,38.06-7.55,15.42-12.77,32.28-15.66,50.59-2.89,18.31-4.34,35.82-4.34,52.52s1.45,34.21,4.34,52.52c2.89,18.31,8.11,35.17,15.66,50.59,7.54,15.42,17.9,28.11,31.08,38.06,13.17,9.96,30.19,14.94,51.07,14.94Z"/>
      <path class="cls-1" d="m253.91,228.37c-.65,15.42,1.2,29.31,5.54,41.68,4.34,12.37,10.68,22.81,19.03,31.32,8.35,8.51,18.62,15.1,30.84,19.75,12.2,4.66,26.02,6.99,41.43,6.99,12.2,0,24.09-1.76,35.65-5.3,11.56-3.53,21.76-8.75,30.59-15.66,8.83-6.9,15.9-15.49,21.2-25.78,5.3-10.28,7.95-22,7.95-35.17,0-15.73-3.21-28.83-9.64-39.27-6.43-10.43-14.94-18.55-25.54-24.33-10.6-5.78-22.57-9.64-35.89-11.56-13.33-1.93-26.91-2.41-40.71-1.45v-15.9c12.2.65,24.49.08,36.86-1.69,12.36-1.76,23.53-5.3,33.49-10.6,9.95-5.3,18.07-12.6,24.33-21.92,6.26-9.31,9.4-21.2,9.4-35.65,0-11.56-2.65-21.68-7.95-30.35-5.3-8.67-12.21-15.73-20.72-21.2-8.51-5.46-17.99-9.55-28.43-12.29-10.44-2.73-20.64-4.1-30.59-4.1-14.45,0-27.15,2.41-38.06,7.23-10.92,4.82-19.99,11.41-27.22,19.75-7.23,8.36-12.77,18.31-16.62,29.87s-6.11,24.26-6.75,38.06h-18.31c0-16.38,2.48-31.39,7.47-45.05,4.98-13.65,12.12-25.29,21.44-34.93,9.31-9.64,20.55-17.18,33.73-22.64,13.17-5.46,27.94-8.19,44.33-8.19,13.49,0,26.57,1.61,39.27,4.82,12.69,3.21,23.92,8.19,33.73,14.94,9.79,6.75,17.74,15.42,23.85,26.02,6.1,10.6,9.15,23.29,9.15,38.06,0,9.96-1.53,19.27-4.58,27.95-3.06,8.67-7.47,16.38-13.25,23.13s-12.69,12.29-20.72,16.62c-8.03,4.34-16.86,7.15-26.5,8.43v.96c11.24,1.29,21.36,4.34,30.35,9.15,8.99,4.82,16.62,11.01,22.89,18.55,6.26,7.55,11.08,16.22,14.45,26.02,3.37,9.8,5.06,20.32,5.06,31.56,0,16.38-3.06,30.68-9.15,42.88-6.1,12.21-14.3,22.4-24.57,30.59-10.28,8.19-22.33,14.3-36.14,18.31-13.81,4.01-28.43,6.02-43.84,6.02-18.31,0-34.77-2.58-49.38-7.71-14.62-5.13-26.98-12.6-37.1-22.4-10.12-9.79-17.67-21.84-22.64-36.13-4.98-14.29-6.99-30.75-6.02-49.38h18.31Z"/>
    </g>
  </g>
</svg>
